<svg version="1.0" xmlns="http://www.w3.org/2000/svg" width="1237.333" height="1237.333" viewBox="0 0 928 928"><path d="M236.5 280.3C112.2 404.6 10.2 506.9 9.8 507.4c-.4.8 22 1.1 75.2 1l75.8-.2 9.6 9.8c5.3 5.3 9.6 9.6 9.6 9.4 0-.1 2.6 2.5 5.8 5.8 9.3 9.9 10.1 10.6 10.6 10 .3-.3.6-.1.6.4 0 .7 249.8 251.3 255.5 256.3.5.5 75.5-74.3 75.5-75.3 0-.3-65.5-66.2-145.5-146.2-80-80.1-145.5-145.9-145.5-146.3 0-.3 51.1-51.7 113.5-114.1l113.4-113.4 152 151.9 151.9 152 74.6-.1c41.1-.1 74.9-.4 75.3-.7.8-.8-452.5-453.7-454-453.6-.7 0-102.9 101.8-227.2 226.2z"/><path d="M425.8 394.8L388 432.5l27.6 27.5c15.2 15.1 28.7 28.8 30 30.3 1.3 1.6 2.4 2.7 2.4 2.4 0-.2 6.9 6.6 15.3 15.1 8.3 8.5 16 16.2 17 17.1 1 .9 20.8 20.6 44 43.9 23.2 23.3 42.7 42.9 43.4 43.5 16.1 16.1 105.9 105.7 108.7 108.6l3.9 4-74.7 74.6c-41 41-74.6 74.8-74.6 75.1 0 .7 236 .4 236.1-.4.1-.4.2-48.6.3-107.2l.2-106.5-151.5-151.8C532.7 425.3 464.3 357 464 357c-.3 0-17.5 17-38.2 37.8zM160.9 662c-.1.8-.2 49.1-.3 107.2l-.1 105.8h107.4c96.5 0 107.2-.2 106.1-1.5-6-7.2-213-212.7-213.1-211.5z"/></svg>