<svg width="176" height="28" fill="none" xmlns="http://www.w3.org/2000/svg"><path d="M69.492 27.561v-4.839l-4.715-7.437h3.158l2.929 4.927 2.982-4.927h3.07L72.2 22.67v4.892h-2.709zM57.9 22.422h3.26l-1.632-3.978-1.632 3.978h.004zm-4.839 5.14l5.263-12.365h2.487l5.263 12.364H63.25l-1.12-2.752h-5.193l-1.12 2.752h-2.756zm-5.875 0v-9.785H43.45v-2.492h10.17v2.492h-3.736v9.784h-2.7zm-9.453.176c-2.012 0-3.745-.653-5.21-1.963l1.597-1.91c1.204.992 2.426 1.49 3.666 1.49.551 0 .983-.105 1.297-.317a.994.994 0 00.472-.878c0-.353-.164-.635-.49-.851-.326-.216-.988-.454-1.98-.71a15.008 15.008 0 01-1.703-.516 5.539 5.539 0 01-1.235-.675 2.496 2.496 0 01-.86-1.059c-.181-.428-.274-.94-.274-1.535 0-1.111.401-2.003 1.2-2.682.803-.68 1.83-1.019 3.096-1.019 1.743 0 3.26.52 4.561 1.562l-1.402 2.033c-1.156-.807-2.224-1.208-3.194-1.208-.503 0-.89.101-1.164.308a.952.952 0 00-.41.799c0 .397.167.697.507.895.34.199 1.054.437 2.139.72 1.332.352 2.316.802 2.947 1.349.63.551.948 1.336.948 2.369 0 1.19-.41 2.126-1.235 2.796-.825.67-1.915 1.01-3.269 1.01l-.004-.008zm131.759-.178v-4.857l-5.103-7.42h1.685l4.137 6.136 4.173-6.136h1.615l-5.104 7.402v4.874h-1.403zm-11.958 0V16.562h-4.12v-1.28h9.643v1.28h-4.12v10.996h-1.403zm-14.538-6.017h3.771c.935 0 1.694-.23 2.28-.684.587-.454.878-1.08.878-1.875 0-.794-.278-1.354-.833-1.777-.556-.428-1.324-.64-2.307-.64h-3.789v4.98-.004zm-1.386 6.016V15.283h5.28c1.509 0 2.674.41 3.49 1.227.63.63.948 1.451.948 2.457 0 1.005-.304 1.777-.913 2.386-.609.609-1.416 1.006-2.422 1.191l3.772 5.015h-1.703l-3.56-4.768h-3.506v4.768h-1.386zm-11.746 0V15.283h8.875v1.262h-7.486v4.19h6.701v1.262h-6.701v4.296h7.574v1.262h-8.959l-.004.004zm-10.326-5.593h3.035c1.018 0 1.83-.247 2.448-.745.613-.499.922-1.16.922-1.99 0-.829-.296-1.513-.887-1.971-.591-.463-1.394-.693-2.413-.693h-3.105v5.4zm-1.385 5.593V15.283h4.596c1.403 0 2.519.353 3.348 1.055.829.701 1.244 1.658 1.244 2.876 0 1.217-.459 2.263-1.376 2.964-.918.701-2.065 1.054-3.445 1.054h-2.982v4.332h-1.385v-.005zm-12.633-2.54c.917.983 2.073 1.473 3.462 1.473 1.39 0 2.541-.49 3.445-1.465.904-.974 1.359-2.179 1.359-3.603 0-1.425-.459-2.612-1.376-3.595-.918-.984-2.074-1.474-3.463-1.474-1.39 0-2.541.49-3.445 1.465-.904.975-1.359 2.179-1.359 3.604 0 1.424.459 2.61 1.377 3.595zm7.935.886c-1.182 1.244-2.682 1.866-4.508 1.866s-3.322-.617-4.491-1.857c-1.168-1.24-1.755-2.735-1.755-4.49 0-1.756.591-3.234 1.773-4.482 1.182-1.244 2.682-1.866 4.508-1.866s3.322.618 4.491 1.857c1.169 1.24 1.755 2.735 1.755 4.49 0 1.756-.591 3.234-1.773 4.482zm-21.5-4.358h3.772c.935 0 1.694-.23 2.28-.684.587-.454.878-1.08.878-1.874s-.278-1.354-.833-1.778c-.556-.428-1.324-.64-2.307-.64h-3.79v4.98-.004zm-1.384 6.017V15.288h5.28c1.508 0 2.673.41 3.489 1.226.63.63.948 1.451.948 2.457 0 1.006-.304 1.778-.913 2.387-.609.608-1.416 1.005-2.422 1.19l3.772 5.016h-1.703l-3.56-4.769h-3.506v4.769H90.57zM80.244 21.97h3.035c1.02 0 1.83-.247 2.448-.746.614-.498.922-1.16.922-1.99 0-.828-.295-1.512-.886-1.971-.592-.463-1.394-.692-2.413-.692h-3.106v5.399zm-1.385 5.593V15.288h4.597c1.402 0 2.518.353 3.348 1.054.829.702 1.243 1.659 1.243 2.876 0 1.218-.458 2.263-1.376 2.964-.917.702-2.064 1.055-3.445 1.055h-2.982v4.331H78.86v-.004z" fill="#fff"/><path fill-rule="evenodd" clip-rule="evenodd" d="M12.717 12.722l2.54-2.54c3.662 3.639 6.52 6.537 10.181 10.176v7.207h-7.957l5.037-5.037-9.805-9.806h.004zM5.086 27.561v-7.208l7.212 7.208H5.086z" fill="#fff"/><path fill-rule="evenodd" clip-rule="evenodd" d="M14.887 25.063l-9.801-9.8H0L15.262 0 30.53 15.262h-5.09L15.257 5.082l-7.631 7.63 9.805 9.81-2.545 2.541z" fill="#fff"/></svg>