<svg xmlns="http://www.w3.org/2000/svg" width="176" height="30" fill="none"><path fill-rule="evenodd" clip-rule="evenodd" d="M14.138 14.347l3.054-3.054c3.977 3.945 7.784 7.73 11.761 11.686v6.936h-8.908l4.857-4.857-10.774-10.7.01-.01zM5.453 29.904V22.97l6.936 6.935H5.453zm34.365-14.167c.488.551.954.954 1.442 1.24.467.266.944.404 1.41.404.435 0 .785-.117 1.072-.35.286-.234.424-.541.424-.891 0-.403-.117-.71-.371-.923-.234-.223-.785-.435-1.644-.668-1.177-.318-1.994-.721-2.482-1.24-.487-.51-.742-1.188-.742-2.08 0-1.155.382-2.078 1.156-2.799.753-.742 1.76-1.092 2.99-1.092a6.38 6.38 0 011.877.265c.584.17 1.156.435 1.676.806l-1.029 2.354a4.483 4.483 0 00-1.145-.72 3.212 3.212 0 00-1.156-.234c-.382 0-.71.106-.954.286a.836.836 0 00-.371.721c0 .297.106.541.318.721.222.18.636.35 1.262.52l.137.032c1.347.371 2.217.753 2.641 1.188.286.286.51.657.658 1.06a4.1 4.1 0 01.222 1.379c0 1.272-.424 2.3-1.262 3.075-.827.774-1.95 1.156-3.34 1.156-.838 0-1.59-.138-2.28-.424-.69-.287-1.347-.743-1.983-1.347l1.474-2.44zm12.747 3.881v-9.173h-2.683V7.603h8.653v2.842h-2.683v9.173h-3.287zm7.264 0l4.146-12.004h4.094l4.146 12.004H68.96l-.605-2.153H63.7l-.626 2.153h-3.256.01zm4.581-4.486h3.256l-1.23-3.966a20.09 20.09 0 01-.149-.583c-.064-.265-.148-.605-.254-1.029a9.694 9.694 0 01-.223.838c-.064.265-.138.52-.201.774l-1.21 3.966h.011zm12.28 4.486v-5.472l-4.2-6.532h3.766l1.612 3.086s.031.053.053.084c.17.34.286.637.35.944.052-.265.17-.572.35-.901.031-.053.053-.106.063-.117l1.59-3.086h3.766l-4.2 6.533v5.472h-3.16l.01-.01z" fill="#fff"/><path d="M88.327 14.232v5.387h-1.835V7.615h2.959c.87 0 1.516.053 1.93.138.403.106.774.265 1.071.487.382.266.668.658.89 1.125.224.466.319.986.319 1.558 0 .573-.096 1.093-.318 1.56-.223.487-.51.869-.891 1.145-.297.222-.668.37-1.071.466-.424.085-1.06.138-1.93.138h-1.124zm10.668.021v5.377H97.16V7.615h2.726c.806 0 1.41.053 1.866.148.435.106.806.287 1.124.52.372.286.658.668.859 1.124.202.456.297.954.297 1.516 0 .955-.233 1.718-.689 2.249-.467.551-1.156.87-2.068.986l4.136 5.461h-2.195l-3.998-5.376h-.223v.01zm.117-1.516h.35c1.039 0 1.728-.117 2.068-.371.339-.234.509-.658.509-1.273 0-.657-.181-1.124-.541-1.39-.371-.264-1.039-.402-2.036-.402h-.35v3.446-.01zm21.496.912c0 .859-.149 1.665-.467 2.418-.339.753-.785 1.442-1.41 2.036a6.413 6.413 0 01-2.079 1.378 6.375 6.375 0 01-2.45.467 6.193 6.193 0 01-2.471-.488 6.471 6.471 0 01-2.078-1.357 6.043 6.043 0 01-1.389-2.036 6.288 6.288 0 01-.467-2.418c0-.86.17-1.665.467-2.44a6.373 6.373 0 011.389-2.035 6.239 6.239 0 012.078-1.358 6.52 6.52 0 012.471-.466c.859 0 1.676.148 2.471.466a5.887 5.887 0 012.068 1.358c.626.604 1.071 1.293 1.411 2.046a6.22 6.22 0 01.466 2.418l-.01.01zm-2.037 0a4.52 4.52 0 00-.339-1.729 4.492 4.492 0 00-.954-1.463 4.344 4.344 0 00-1.39-.976 4.44 4.44 0 00-1.696-.34 4.346 4.346 0 00-3.107 1.315 4.64 4.64 0 00-.944 1.443 4.587 4.587 0 00-.34 1.75c0 .626.117 1.177.34 1.718a4.74 4.74 0 00.944 1.463 4.346 4.346 0 003.107 1.315c.583 0 1.145-.116 1.675-.34.52-.222.986-.55 1.411-.975.424-.435.742-.901.954-1.463a4.468 4.468 0 00.339-1.718zm7.837.583v5.387h-1.834V7.615h2.958c.87 0 1.517.053 1.93.138.403.106.775.265 1.072.487.381.266.668.658.89 1.125.223.466.319.986.319 1.558 0 .573-.096 1.093-.319 1.56-.222.487-.509.869-.89 1.145-.297.222-.669.37-1.072.466-.424.085-1.06.138-1.93.138h-1.124zm.117-1.59h.498c1.071 0 1.793-.117 2.164-.35.35-.234.541-.658.541-1.241 0-.637-.181-1.093-.573-1.358-.382-.254-1.114-.382-2.132-.382h-.498v3.341-.01zm8.717 6.988V7.615h6.702V9.28h-4.751v3h4.751V14h-4.751v3.881h4.751v1.75h-6.702zm12.503-5.377v5.377h-1.835V7.615h2.726c.806 0 1.41.053 1.866.148.435.106.806.287 1.124.52.371.286.658.668.859 1.124.202.456.297.954.297 1.516 0 .955-.233 1.718-.689 2.249-.467.551-1.156.87-2.068.986l4.136 5.461h-2.195l-3.998-5.376h-.223v.01zm.117-1.516h.35c1.039 0 1.728-.117 2.068-.371.339-.234.498-.658.498-1.273 0-.657-.18-1.124-.541-1.39-.371-.264-1.039-.402-2.036-.402h-.35v3.446l.011-.01zm13.065-3.457v10.35h-1.952V9.28h-3.192V7.615h8.314V9.28h-3.17zm8.982 10.35v-5.493l-4.051-6.512h2.047l2.523 4.083c.064.106.138.233.234.403.085.17.169.35.265.552.085-.202.148-.372.233-.541.085-.18.18-.34.265-.467l2.588-4.03h1.951l-4.136 6.512v5.493h-1.93.011zm-81.476-6.99h.509c1.071 0 1.792-.116 2.163-.35.35-.233.541-.657.541-1.24 0-.637-.18-1.093-.573-1.358-.381-.254-1.113-.382-2.131-.382h-.51v3.341-.01z" fill="#fff"/><path fill-rule="evenodd" clip-rule="evenodd" d="M16.162 27.837L5.525 17.201H0L17.2 0l17.212 17.2h-5.525L17.201 5.515l-8.93 8.919L18.92 25.08l-2.757 2.757z" fill="#fff"/><path d="M173.548 25.504h.605v3.17c0 .319.032.563.095.722.17.382.488.573.965.573.308 0 .562-.085.753-.255l-.212-.329-.064.053s-.106.064-.191.096a.727.727 0 01-.265.042c-.424 0-.636-.265-.636-.785v-3.276h1.103V25.1h-1.103v-1.188h-.445V25.1h-.605v.414-.01zm-.816 4.401v-3.34c0-.467-.138-.838-.414-1.125-.276-.286-.636-.424-1.082-.424-.159 0-.318.022-.466.075a2.4 2.4 0 00-.361.159 2.233 2.233 0 00-.254.212c-.075.085-.128.137-.149.159-.021.032-.042.053-.053.074l-.032-.605h-.424v4.815h.456V26.66c0-.36.127-.657.382-.89.255-.234.53-.361.838-.361.329 0 .594.116.795.339.202.223.308.509.308.859v3.298h.456zm-7.169-3.362c0-.307.106-.572.318-.795.212-.223.488-.329.827-.329.34 0 .615.106.838.329.223.223.329.488.329.795v.647h-2.312v-.647zm2.312 1.952a1.082 1.082 0 01-.35.774 1.166 1.166 0 01-.817.307 1.12 1.12 0 01-.827-.328 1.114 1.114 0 01-.318-.796v-.848h2.757v-1.018c0-.467-.148-.838-.445-1.135-.297-.297-.679-.435-1.156-.435-.477 0-.88.149-1.167.435-.286.286-.435.668-.435 1.124v1.835c0 .466.149.838.435 1.134.297.297.679.435 1.167.435.456 0 .827-.138 1.124-.413.297-.276.456-.637.477-1.071h-.445zm-6.384 1.41v-3.33c0-.35.106-.625.318-.838.212-.212.466-.318.753-.318.254 0 .466.085.636.265.18.18.265.403.265.68v3.53h.446v-3.51c0-.413-.128-.753-.382-.997a1.248 1.248 0 00-.923-.37 1.33 1.33 0 00-.456.073 2.384 2.384 0 00-.36.16 2.24 2.24 0 00-.255.212c-.074.085-.127.137-.148.159-.022.032-.043.053-.053.074l-.106-.16c-.064-.116-.191-.232-.382-.35a1.255 1.255 0 00-.668-.169 1.27 1.27 0 00-.647.18c-.202.117-.329.213-.382.287-.053.074-.095.127-.127.17l-.021-.563h-.435v4.815h.445v-3.213c0-.35.106-.647.329-.891.223-.254.477-.371.785-.371a.84.84 0 01.636.276c.18.19.265.413.265.678v3.532h.445l.022-.011zm-6.193-4.4h.604v3.17c0 .318.032.562.095.721.17.382.488.573.965.573.308 0 .563-.085.753-.255l-.212-.329-.063.053s-.106.064-.191.096a.734.734 0 01-.265.042c-.425 0-.637-.265-.637-.785v-3.276h1.103V25.1h-1.103v-1.188h-.445V25.1h-.604v.414-.01zm-.7.773c-.022-.318-.159-.604-.403-.87-.255-.265-.584-.392-.997-.392-.414 0-.732.117-.997.34-.265.222-.392.52-.392.89 0 .287.084.53.243.732.16.191.361.35.594.456.234.106.467.202.69.297.233.095.424.212.594.371.159.16.243.35.243.573a.822.822 0 01-.286.647c-.191.17-.435.254-.732.254s-.562-.095-.763-.286c-.202-.19-.297-.435-.308-.732h-.445c0 .393.138.732.403 1.008.265.275.636.413 1.103.413a1.57 1.57 0 001.05-.37c.286-.255.424-.563.424-.934 0-.318-.085-.594-.244-.806a1.524 1.524 0 00-.594-.477c-.233-.106-.467-.202-.689-.297a2.06 2.06 0 01-.594-.36.718.718 0 01-.244-.542c0-.212.085-.403.265-.551a.961.961 0 01.626-.223c.265 0 .498.085.689.244a.819.819 0 01.297.615h.467zm-6.639.265c0-.307.106-.572.318-.795.212-.223.488-.329.827-.329.34 0 .615.106.838.329.223.223.329.488.329.795v.647h-2.312v-.647zm2.312 1.952a1.078 1.078 0 01-.35.774 1.166 1.166 0 01-.817.307 1.12 1.12 0 01-.827-.328 1.114 1.114 0 01-.318-.796v-.848h2.757v-1.018c0-.467-.148-.838-.445-1.135-.297-.297-.679-.435-1.156-.435-.477 0-.88.149-1.167.435-.286.286-.434.668-.434 1.124v1.835c0 .466.148.838.434 1.134.297.297.679.435 1.167.435.456 0 .827-.138 1.124-.413.297-.276.456-.637.477-1.071h-.445zm-6.501-3.405h-.466l1.484 4.815h.605l1.495-4.815h-.467l-1.315 4.412-1.315-4.412h-.021zm-1.241 4.815v-3.34c0-.467-.137-.838-.413-1.125-.276-.286-.636-.424-1.082-.424-.159 0-.318.022-.466.075a2.355 2.355 0 00-.361.159c-.085.063-.17.127-.254.212-.075.085-.128.137-.149.159-.021.032-.042.053-.053.074l-.032-.605h-.424v4.815h.456V26.66c0-.36.127-.657.382-.89.254-.234.53-.361.838-.361.328 0 .593.116.795.339.201.223.307.509.307.859v3.298h.456zm-4.655-6.745h-.509v6.745h.509V23.16zm-3.924 3.776h-2.142v.477h2.142v-.477zm-5.419 2.969v-3.34c0-.467-.138-.838-.413-1.125-.276-.286-.637-.424-1.082-.424-.159 0-.318.022-.467.075a2.384 2.384 0 00-.36.159 2.24 2.24 0 00-.255.212c-.074.085-.127.137-.148.159-.021.032-.043.053-.053.074l-.032-.605h-.424v4.815h.456V26.66c0-.36.127-.657.382-.89.254-.234.53-.361.837-.361.329 0 .594.116.796.339.201.223.307.509.307.859v3.298h.456zm-6.076-.329c-.35 0-.637-.106-.838-.318-.212-.212-.308-.488-.308-.827v-1.845c0-.329.106-.605.319-.827.212-.223.487-.34.837-.34s.626.117.838.34c.212.222.318.498.318.827v1.845c0 .329-.106.604-.318.827-.212.212-.488.318-.838.318h-.01zm0-4.56c-.477 0-.87.149-1.167.446-.297.297-.445.689-.445 1.156v1.792c0 .466.148.838.435 1.134.297.297.678.435 1.166.435.488 0 .88-.148 1.167-.434.297-.297.434-.669.434-1.135v-1.792c0-.478-.148-.86-.445-1.156-.297-.297-.679-.446-1.166-.446h.021zm-3.457-.806h.593v-.678h-.593v.678zm.063 5.695h.467V25.09h-.467v4.815zm-3.351-4.4h.605v3.17c0 .318.031.562.095.721.17.382.488.573.965.573.308 0 .562-.085.753-.255l-.212-.329-.064.053s-.106.064-.191.096a.727.727 0 01-.265.042c-.424 0-.636-.265-.636-.785v-3.276h1.103V25.1h-1.103v-1.188h-.445V25.1h-.605v.414-.01zm-3.192 1.08c0-.328.106-.604.318-.826.212-.223.488-.34.838-.34.318 0 .583.096.785.287.201.19.307.445.318.763h.456a1.523 1.523 0 00-.467-1.04c-.286-.275-.647-.413-1.092-.413-.477 0-.87.149-1.166.446-.297.297-.446.689-.446 1.156v1.792c0 .466.149.838.435 1.134.297.297.679.435 1.166.435.456 0 .828-.138 1.125-.413.296-.276.456-.637.477-1.06h-.446c-.01.307-.127.561-.339.773a1.147 1.147 0 01-.817.308c-.35 0-.636-.106-.837-.318-.212-.212-.308-.488-.308-.827v-1.856zm-4.92-1.495v3.341c0 .477.137.859.403 1.135.265.275.625.413 1.06.413.159 0 .318-.02.467-.074.148-.053.275-.106.36-.159.096-.064.18-.127.255-.212.074-.085.127-.138.159-.16.021-.031.042-.052.053-.073l.032.604h.424V25.09h-.456v3.245c0 .361-.127.669-.393.902a1.33 1.33 0 01-.912.35c-.318 0-.572-.106-.742-.318-.18-.212-.265-.51-.265-.88V25.09h-.456.011zm-.775-.084h-.159c-.265 0-.53.084-.774.244-.244.159-.413.328-.519.509l-.022-.658h-.424v4.815h.446v-3.34c0-.287.127-.552.371-.796.254-.244.541-.36.859-.36h.212v-.414h.01zm-5.175.498h.605v3.17c0 .319.032.563.095.722.17.382.488.573.965.573.308 0 .562-.085.753-.255l-.212-.329-.064.053s-.106.064-.19.096a.736.736 0 01-.266.042c-.424 0-.636-.265-.636-.785v-3.276h1.103V25.1h-1.103v-1.188h-.445V25.1h-.605v.414-.01zm-.7.774c-.021-.318-.159-.604-.403-.87-.254-.265-.583-.392-.996-.392-.414 0-.732.117-.997.34-.265.222-.393.52-.393.89 0 .287.085.53.244.732.16.191.36.35.594.456.233.106.467.202.69.297.233.095.424.212.593.371.159.16.244.35.244.573a.822.822 0 01-.286.647c-.191.17-.435.254-.732.254s-.562-.095-.763-.286c-.202-.19-.297-.435-.308-.732h-.445c0 .393.138.732.403 1.008.265.275.636.413 1.103.413a1.57 1.57 0 001.049-.37 1.19 1.19 0 00.425-.934c0-.318-.085-.594-.244-.806a1.524 1.524 0 00-.594-.477c-.234-.106-.467-.202-.69-.297a2.066 2.066 0 01-.593-.36.718.718 0 01-.244-.542c0-.212.085-.403.265-.551a.962.962 0 01.626-.223c.265 0 .498.085.689.244a.819.819 0 01.297.615h.466zm-4.061 3.627v-3.34c0-.467-.138-.838-.414-1.125-.275-.286-.636-.424-1.082-.424-.159 0-.318.022-.466.075a2.394 2.394 0 00-.36.159c-.085.063-.17.127-.255.212-.085.085-.127.137-.149.159-.02.032-.042.053-.053.074l-.032-.605h-.424v4.815h.456V26.66c0-.36.128-.657.382-.89.255-.234.53-.361.838-.361.329 0 .594.116.795.339.202.223.308.509.308.859v3.298h.456zm-6.077-.329c-.35 0-.636-.106-.838-.318-.212-.212-.307-.488-.307-.827v-1.845c0-.329.106-.605.318-.827.212-.223.488-.34.838-.34s.626.117.838.34c.212.222.318.498.318.827v1.845c0 .329-.106.604-.318.827-.212.212-.488.318-.838.318h-.01zm0-4.56c-.477 0-.87.149-1.166.446-.297.297-.446.689-.446 1.156v1.792c0 .466.149.838.435 1.134.297.297.679.435 1.167.435.487 0 .88-.148 1.166-.434.297-.297.435-.669.435-1.135v-1.792c0-.478-.148-.86-.445-1.156-.297-.297-.68-.446-1.167-.446h.021zm-2.545 3.267h-.498v.052c0 .34-.117.626-.35.86-.234.233-.52.35-.86.35-.339 0-.614-.117-.858-.361a1.177 1.177 0 01-.36-.87v-3.531a1.216 1.216 0 011.219-1.24c.35 0 .615.116.859.36s.36.53.36.87h.488c0-.467-.159-.86-.488-1.188a1.672 1.672 0 00-1.209-.478c-.477 0-.901.16-1.23.478-.328.318-.488.71-.488 1.187v3.553c0 .466.17.87.499 1.188.329.328.742.487 1.22.487.477 0 .88-.159 1.208-.477.33-.318.499-.71.499-1.188v-.042l-.01-.01zm-6.755-1.337h-2.142v.477h2.142v-.477zm-8.08-.392c0-.308.105-.573.317-.795.212-.223.488-.33.828-.33.339 0 .614.107.837.33.223.222.329.487.329.795v.647h-2.312v-.647zm2.311 1.951c-.01.308-.127.562-.35.774a1.165 1.165 0 01-.817.308 1.12 1.12 0 01-.827-.329 1.114 1.114 0 01-.318-.795v-.849h2.757v-1.018c0-.466-.148-.837-.445-1.134-.297-.297-.679-.435-1.156-.435-.477 0-.88.148-1.166.435-.297.297-.435.668-.435 1.124v1.834c0 .467.148.838.435 1.135.297.297.678.435 1.166.435.456 0 .827-.138 1.124-.414.297-.275.456-.636.477-1.07h-.445zm-5.95-2.99h.605v3.17c0 .319.032.563.096.722.17.381.487.572.965.572.307 0 .562-.085.753-.254l-.212-.329-.064.053s-.106.064-.191.095a.732.732 0 01-.265.043c-.424 0-.636-.265-.636-.785v-3.277h1.103v-.413h-1.103v-1.188h-.446v1.188h-.604v.413-.01zm-2.523 4.093c-.297 0-.552-.106-.764-.307a.972.972 0 01-.318-.732c0-.287.096-.53.276-.71.19-.192.435-.298.763-.35.33-.043.764-.085 1.294-.107v1.188c0 .276-.117.52-.36.721a1.355 1.355 0 01-.891.308v-.01zm1.272.308h.435v-3.362c0-.467-.127-.838-.392-1.113-.265-.287-.636-.425-1.103-.425-.392 0-.721.117-.986.34-.265.222-.424.52-.478.89h.456c.053-.243.18-.445.361-.593a.961.961 0 01.657-.234c.319 0 .573.106.764.318.19.213.286.51.286.88v.372l-1.304.116c-.445.053-.795.212-1.071.478a1.351 1.351 0 00-.403.997c0 .402.148.752.435 1.018.286.265.636.402 1.05.402.254 0 .498-.052.72-.17.223-.116.372-.2.425-.264.064-.064.106-.128.138-.17l.032.53-.022-.01zm-5.843-4.401h.605v3.17c0 .319.032.563.095.722.17.381.488.572.965.572.308 0 .562-.085.753-.254l-.212-.329-.064.053s-.106.064-.19.095a.733.733 0 01-.266.043c-.424 0-.636-.265-.636-.785v-3.277h1.103v-.413h-1.103v-1.188h-.445v1.188h-.605v.413-.01zm-.7.774c-.02-.318-.159-.605-.403-.87-.254-.265-.583-.392-.997-.392-.413 0-.731.116-.996.34-.265.222-.393.519-.393.89 0 .286.085.53.244.732.16.19.36.35.594.456.233.106.467.201.69.297.233.095.424.212.593.37.16.16.244.35.244.574a.823.823 0 01-.286.646c-.191.17-.435.255-.732.255s-.562-.096-.764-.286c-.201-.191-.296-.435-.307-.732h-.445c0 .392.137.732.402 1.007.266.276.637.414 1.103.414.414 0 .764-.127 1.05-.371a1.19 1.19 0 00.425-.933c0-.319-.085-.594-.244-.806a1.523 1.523 0 00-.594-.478c-.234-.106-.467-.201-.69-.297a2.066 2.066 0 01-.593-.36.718.718 0 01-.244-.541c0-.212.084-.403.265-.551a.962.962 0 01.625-.223c.266 0 .499.085.69.244a.82.82 0 01.297.615h.466zm-6.808-3.107v6.744h3.107v-.466h-2.608v-2.874h2.29v-.467h-2.29v-2.481h2.523v-.467H55.19v.01zm-4.008 5.949c0 .286.063.498.19.626.128.127.34.19.637.19v-.413c-.16 0-.255-.032-.297-.085-.043-.053-.064-.159-.064-.318v-5.95h-.466v5.95zm-3.002.477c-.297 0-.551-.106-.763-.307a.972.972 0 01-.318-.732c0-.287.095-.53.275-.71.191-.192.435-.298.764-.35.329-.043.764-.085 1.294-.107v1.188c0 .276-.117.52-.36.721a1.36 1.36 0 01-.892.308v-.01zm1.273.308h.435v-3.362c0-.467-.128-.838-.393-1.113-.265-.287-.636-.425-1.103-.425-.392 0-.72.117-.986.34-.265.222-.424.52-.477.89h.456c.053-.243.18-.445.36-.593a.961.961 0 01.658-.234c.318 0 .573.106.764.318.19.213.286.51.286.88v.372l-1.304.116c-.446.053-.796.212-1.072.478-.275.265-.403.594-.403.997 0 .402.149.752.435 1.018.287.265.637.402 1.05.402.255 0 .499-.052.721-.17.223-.116.371-.2.424-.264.064-.064.107-.128.138-.17l.032.53-.021-.01zm-6.522-3.362c0-.308.106-.573.318-.795.212-.223.488-.33.827-.33.34 0 .615.107.838.33.223.222.329.487.329.795v.647H42.93v-.647zm2.312 1.951c-.01.308-.127.562-.35.774a1.165 1.165 0 01-.817.308 1.12 1.12 0 01-.827-.329 1.114 1.114 0 01-.318-.795v-.849h2.757v-1.018c0-.466-.148-.837-.445-1.134-.297-.297-.679-.435-1.156-.435-.477 0-.88.148-1.167.435-.296.297-.434.668-.434 1.124v1.834c0 .467.148.838.434 1.135.297.297.68.435 1.167.435.456 0 .827-.138 1.124-.414.297-.275.456-.636.477-1.07h-.445zm-4.263-2.555a.903.903 0 01-.265.668.946.946 0 01-.669.265h-1.187v-3.224h1.103c.318 0 .562.085.742.265.18.17.265.403.265.679v1.368l.01-.021zm.106 3.955h.54l-1.092-2.651c.287-.085.51-.255.69-.51.18-.243.265-.519.265-.837V24.56c0-.413-.138-.753-.414-1.007-.276-.255-.636-.393-1.092-.393h-1.623v6.745h.499v-2.566h1.156l1.07 2.566z" fill="#fff"/></svg>