<?xml version="1.0" encoding="utf-8"?><svg viewBox="0 0 60 61" xmlns="http://www.w3.org/2000/svg" xmlns:xlink="http://www.w3.org/1999/xlink"><style>:root>svg{display:none}:root>svg:target{display:block}</style><svg fill="none" viewBox="0 0 17 9" id="icon-arrow-next" xmlns="http://www.w3.org/2000/svg"><path d="M16.354 4.807a.5.5 0 000-.707L13.172.918a.5.5 0 10-.708.707l2.829 2.828-2.829 2.829a.5.5 0 10.708.707l3.182-3.182zM0 4.953h16v-1H0v1z" fill="currentColor"/></svg><svg fill="none" viewBox="0 0 8 12" id="icon-arrow-next-short" xmlns="http://www.w3.org/2000/svg"><path d="M1.497 1.05L6.447 6l-4.95 4.95" stroke="currentColor" stroke-width="1.5"/></svg><svg fill="none" viewBox="0 0 17 9" id="icon-arrow-prev" xmlns="http://www.w3.org/2000/svg"><path d="M.646 4.807a.5.5 0 010-.707L3.828.918a.5.5 0 11.708.707L1.707 4.453l2.829 2.829a.5.5 0 11-.708.707L.646 4.807zM17 4.953H1v-1h16v1z" fill="currentColor"/></svg><svg fill="none" viewBox="0 0 8 12" id="icon-arrow-prev-short" xmlns="http://www.w3.org/2000/svg"><path d="M6.503 1.05L1.553 6l4.95 4.95" stroke="currentColor" stroke-width="1.5"/></svg><svg fill="none" viewBox="0 0 24 24" id="icon-bathtub" xmlns="http://www.w3.org/2000/svg"><path d="M5 10V6a2 2 0 114 0M6.5 18L6 20M3 10h18H3zm13 8H8a4 4 0 01-4-4v-4h16v4a4 4 0 01-4 4zm1.5 0l.5 2-.5-2z" stroke="#231F20" stroke-width="1.2" stroke-linecap="round" stroke-linejoin="round"/></svg><svg fill="none" viewBox="0 0 24 24" id="icon-bedroom" xmlns="http://www.w3.org/2000/svg"><path d="M9 11H3v6h18v-6" stroke="#231F20" stroke-width="1.2" stroke-linecap="round" stroke-linejoin="round"/><path d="M21 19v-3 3zM3 19V5v14zm18-6H9v-3a1 1 0 011-1h10a1 1 0 011 1v3z" stroke="#231F20" stroke-width="1.2" stroke-linecap="round" stroke-linejoin="round"/></svg><svg fill="none" viewBox="0 0 12 7" id="icon-caret-select" xmlns="http://www.w3.org/2000/svg"><path d="M1 1l4.95 4.95L10.898 1" stroke="#231F20" stroke-width="1.5"/></svg><svg fill="none" viewBox="0 0 12 7" id="icon-caret-select-accent" xmlns="http://www.w3.org/2000/svg"><path d="M1 1l4.95 4.95L10.898 1" stroke="#5461F6" stroke-width="1.5"/></svg><svg fill="none" viewBox="0 0 14 14" id="icon-check-white" xmlns="http://www.w3.org/2000/svg"><path d="M11.665 3.5L5.25 9.917 2.332 7" stroke="#fff" stroke-width="2" stroke-linecap="round" stroke-linejoin="round"/></svg><svg fill="none" viewBox="0 0 13 13" id="icon-close" xmlns="http://www.w3.org/2000/svg"><path d="M1.764.635a.8.8 0 10-1.131 1.13l4.469 4.47-4.47 4.468a.8.8 0 101.132 1.132l4.469-4.47 4.468 4.47a.8.8 0 101.132-1.132L7.364 6.236l4.469-4.47A.8.8 0 1010.7.636L6.233 5.103 1.764.635z" fill="currentColor"/></svg><svg fill="none" viewBox="0 0 24 24" id="icon-commercial" xmlns="http://www.w3.org/2000/svg"><path d="M5.23 13.846v5.538a.615.615 0 00.616.616h12.308a.615.615 0 00.615-.616v-5.538M13.23 13.846V20M5.23 15.692h8M4 8.308L5.846 4h12.308L20 8.308H4zM9.268 8.308v1.23A2.462 2.462 0 016.806 12h-.344A2.462 2.462 0 014 9.538v-1.23" stroke="currentColor" stroke-width="1.2" stroke-linecap="round" stroke-linejoin="round"/><path d="M14.769 8.308v1.23A2.462 2.462 0 0112.307 12h-.615A2.462 2.462 0 019.23 9.538v-1.23M20 8.308v1.23A2.462 2.462 0 0117.54 12h-.308a2.462 2.462 0 01-2.462-2.462v-1.23" stroke="currentColor" stroke-width="1.2" stroke-linecap="round" stroke-linejoin="round"/></svg><svg fill="none" viewBox="0 0 20 20" id="icon-copy" xmlns="http://www.w3.org/2000/svg"><path d="M16.875 2.5h-10a.625.625 0 00-.625.625V6.25H3.125a.625.625 0 00-.625.625v10a.625.625 0 00.625.625h10a.624.624 0 00.625-.625V13.75h3.125a.624.624 0 00.625-.625v-10a.625.625 0 00-.625-.625zM12.5 16.25H3.75V7.5h8.75v8.75zm3.75-3.75h-2.5V6.875a.625.625 0 00-.625-.625H7.5v-2.5h8.75v8.75z" fill="currentColor"/></svg><svg fill="none" viewBox="0 0 24 24" id="icon-done" xmlns="http://www.w3.org/2000/svg"><path d="M8.379 12l2.41 2.42 4.83-4.84" stroke="#231F20" stroke-width="1.2" stroke-linecap="round" stroke-linejoin="round"/><path d="M10.749 2.45c.69-.59 1.82-.59 2.52 0l1.58 1.36c.3.26.86.47 1.26.47h1.7c1.06 0 1.93.87 1.93 1.93v1.7c0 .39.21.96.47 1.26l1.36 1.58c.59.69.59 1.82 0 2.52l-1.36 1.58c-.26.3-.47.86-.47 1.26v1.7c0 1.06-.87 1.93-1.93 1.93h-1.7c-.39 0-.96.21-1.26.47l-1.58 1.36c-.69.59-1.82.59-2.52 0l-1.58-1.36c-.3-.26-.86-.47-1.26-.47h-1.73c-1.06 0-1.93-.87-1.93-1.93V16.1c0-.39-.21-.95-.46-1.25l-1.35-1.59c-.58-.69-.58-1.81 0-2.5l1.35-1.59c.25-.3.46-.86.46-1.25V6.2c0-1.06.87-1.93 1.93-1.93h1.73c.39 0 .96-.21 1.26-.47l1.58-1.35z" stroke="#231F20" stroke-width="1.2" stroke-linecap="round" stroke-linejoin="round"/></svg><svg fill="none" viewBox="0 0 12 7" id="icon-dropdown" xmlns="http://www.w3.org/2000/svg"><path d="M10.95.95L6 5.9 1.05.95" stroke="currentColor" stroke-width="1.5"/></svg><svg fill="none" viewBox="0 0 20 14" id="icon-filter" xmlns="http://www.w3.org/2000/svg"><path d="M0 10.75h20M0 3.25h20" stroke="currentColor" stroke-linejoin="round"/><circle cx="5" cy="3.25" r="2.5" fill="#fff" stroke="currentColor" stroke-linejoin="round"/><circle cx="15" cy="10.75" r="2.5" fill="#fff" stroke="currentColor" stroke-linejoin="round"/></svg><svg fill="none" viewBox="0 0 24 24" id="icon-forest" xmlns="http://www.w3.org/2000/svg"><path d="M19 15v6M3 21h18H3zM13 8.5a3.49 3.49 0 00-2.09-3.2 3 3 0 00-5.82 0 3.49 3.49 0 000 6.4 3 3 0 005.82 0A3.49 3.49 0 0013 8.5zM8 9v12V9zm13 4v-3a2 2 0 00-2-2v0a2 2 0 00-2 2v3a2 2 0 004 0z" stroke="#231F20" stroke-width="1.2" stroke-linecap="round" stroke-linejoin="round"/></svg><svg fill="none" viewBox="0 0 20 20" id="icon-instagram" xmlns="http://www.w3.org/2000/svg"><path d="M15.203 5.175a.375.375 0 110-.75M15.203 5.175a.375.375 0 000-.75" stroke="currentColor" stroke-linecap="round" stroke-linejoin="round"/><path d="M1 4.857A3.857 3.857 0 014.857 1h10.286A3.857 3.857 0 0119 4.857v10.286A3.857 3.857 0 0115.143 19H4.857A3.857 3.857 0 011 15.143V4.857z" stroke="currentColor" stroke-linecap="round" stroke-linejoin="round"/><circle cx="10.002" cy="10" r="3.822" stroke="currentColor" stroke-linecap="round" stroke-linejoin="round"/></svg><svg fill="none" viewBox="0 0 20 18" id="icon-like" xmlns="http://www.w3.org/2000/svg"><path d="M10.006 17L2.367 9.63c-4.151-4.422 1.951-12.912 7.639-6.043 5.687-6.869 11.762 1.65 7.638 6.043L10.006 17z" stroke="currentColor" stroke-width="1.2" stroke-linecap="round" stroke-linejoin="round"/></svg><svg fill="none" viewBox="0 0 20 18" id="icon-like-filled" xmlns="http://www.w3.org/2000/svg"><path d="M10.006 17L2.367 9.63c-4.151-4.422 1.951-12.912 7.639-6.043 5.687-6.869 11.762 1.65 7.638 6.043L10.006 17z" fill="currentColor" stroke="currentColor" stroke-width="1.2" stroke-linecap="round" stroke-linejoin="round"/></svg><svg fill="none" viewBox="0 0 14 14" id="icon-location" xmlns="http://www.w3.org/2000/svg"><path d="M7.515 12.53a.5.5 0 00.908-.029l4.596-10.865a.5.5 0 00-.655-.655L1.5 5.577a.5.5 0 00-.029.908l3.88 1.94a.5.5 0 01.225.224l1.94 3.88z" stroke="#231F20" stroke-linecap="round" stroke-linejoin="round"/></svg><svg fill="none" viewBox="0 0 24 25" id="icon-location-pin" xmlns="http://www.w3.org/2000/svg"><path d="M19.714 8.928c0 5.357-7.715 11.607-7.715 11.607s-7.714-6.25-7.714-11.607C4.285 4.552 7.798.893 12 .893c4.202 0 7.715 3.659 7.715 8.035z" stroke="currentColor" stroke-width="1.2" stroke-linecap="round" stroke-linejoin="round"/><path d="M12.001 11.607c1.42 0 2.572-1.2 2.572-2.678 0-1.48-1.152-2.679-2.572-2.679-1.42 0-2.571 1.2-2.571 2.679 0 1.479 1.151 2.678 2.571 2.678zM18.988 17.857h1.582l2.571 6.25H.855l2.572-6.25h1.582" stroke="currentColor" stroke-width="1.2" stroke-linecap="round" stroke-linejoin="round"/></svg><svg fill="none" viewBox="0 0 60 61" id="icon-play" xmlns="http://www.w3.org/2000/svg"><circle cx="30" cy="30.453" r="30" fill="#fff"/><path d="M26 36.453v-12l10 6-10 6z" fill="#231F20"/></svg><svg fill="none" viewBox="0 0 24 24" id="icon-residential" xmlns="http://www.w3.org/2000/svg"><path d="M5 9V6a1 1 0 011-1h12a1 1 0 011 1v3" stroke="currentColor" stroke-width="1.2" stroke-linecap="round" stroke-linejoin="round"/><path d="M5 19v-2m16-6v4a2 2 0 01-2 2H5a2 2 0 01-2-2v-4a2 2 0 012.34-2A2.07 2.07 0 017 11.11V13h10v-1.89A2.07 2.07 0 0118.66 9 2 2 0 0121 11v0zm-2 8v-2 2z" stroke="currentColor" stroke-width="1.2" stroke-linecap="round" stroke-linejoin="round"/></svg><svg fill="none" viewBox="0 0 24 24" id="icon-road" xmlns="http://www.w3.org/2000/svg"><path d="M4 20L7.692 4M12 4v2.462M12 10.77v2.461M12 17.54V20M20 20L16.31 4" stroke="#231F20" stroke-width="1.2" stroke-linecap="round" stroke-linejoin="round"/></svg><svg fill="none" viewBox="0 0 22 21" id="icon-search" xmlns="http://www.w3.org/2000/svg"><path d="M9.572 16.929a7.857 7.857 0 100-15.714 7.857 7.857 0 000 15.714z" stroke="currentColor" stroke-width="1.5" stroke-linecap="round" stroke-linejoin="round"/><path d="M20.286 19.786l-5-5" stroke="currentColor" stroke-width="1.5" stroke-linecap="square" stroke-linejoin="round"/></svg><svg fill="none" viewBox="0 0 24 24" id="icon-size" xmlns="http://www.w3.org/2000/svg"><path d="M16 4h4v4M8 20H4v-4M10 14l-6 6m10-10l6-6-6 6z" stroke="#231F20" stroke-width="1.2" stroke-linecap="round" stroke-linejoin="round"/></svg><svg fill="none" viewBox="0 0 24 24" id="icon-stairs" xmlns="http://www.w3.org/2000/svg"><path d="M3 21h18M19 8.62V17 8.62zM5 3.38V11 3.38zM20 9L4 3l16 6zM4 11v10h16v-4h-4v-2h-4v-2H8v-2H4z" stroke="#231F20" stroke-width="1.2" stroke-linecap="round" stroke-linejoin="round"/></svg><svg fill="none" viewBox="0 0 15 14" id="icon-star" xmlns="http://www.w3.org/2000/svg"><path d="M7.5 0l2.037 4.697 5.096.485-3.838 3.389 1.113 4.997L7.5 10.965l-4.408 2.603L4.205 8.57.367 5.182l5.096-.485L7.5 0z" fill="#EFC88D"/></svg><svg fill="none" viewBox="0 0 20 20" id="icon-telegram" xmlns="http://www.w3.org/2000/svg"><path d="M19 1l-1.385 18-7.606-7.806L1 9.308 19 1z" stroke="currentColor" stroke-width="1.2" stroke-linecap="round" stroke-linejoin="round"/><path d="M6.656 10.486l1.354 7.816 4.954-4.105M10 11.157l2.886-2.31" stroke="currentColor" stroke-width="1.2" stroke-linecap="round" stroke-linejoin="round"/></svg><svg fill="none" viewBox="0 0 20 20" id="icon-thumb-up" xmlns="http://www.w3.org/2000/svg"><path d="M18.281 6.26a1.874 1.874 0 00-1.406-.635H12.5v-1.25A3.125 3.125 0 009.375 1.25a.625.625 0 00-.56.345L5.866 7.5H2.5a1.25 1.25 0 00-1.25 1.25v6.875a1.25 1.25 0 001.25 1.25h13.438a1.875 1.875 0 001.86-1.64l.938-7.5a1.874 1.874 0 00-.455-1.476zM2.5 8.75h3.125v6.875H2.5V8.75zm14.995-1.172l-.937 7.5a.624.624 0 01-.62.547H6.874V8.273l2.868-5.737a1.875 1.875 0 011.507 1.839V6.25a.625.625 0 00.625.625h5a.625.625 0 01.62.703z" fill="currentColor"/></svg><svg fill="none" viewBox="0 0 22 22" id="icon-tiles" xmlns="http://www.w3.org/2000/svg"><path stroke="currentColor" stroke-width="1.2" stroke-linecap="round" stroke-linejoin="round" d="M.6.6h8.883v8.883H.6zM.6 12.516h8.883v8.883H.6zM12.518.6h8.883v8.883h-8.883zM12.518 12.516h8.883v8.883h-8.883z"/></svg><svg fill="none" viewBox="0 0 20 20" id="icon-trash" xmlns="http://www.w3.org/2000/svg"><path d="M7 1h6M1 4h18m-2 0l-.701 10.52c-.105 1.578-.158 2.367-.499 2.965a3 3 0 01-1.298 1.215c-.62.3-1.41.3-2.993.3H8.491c-1.582 0-2.373 0-2.993-.3A3 3 0 014.2 17.485c-.34-.598-.393-1.387-.499-2.966L3 4m5 4.5v5m4-5v5" stroke="currentColor" stroke-width="1.2" stroke-linecap="round" stroke-linejoin="round"/></svg><svg fill="none" viewBox="0 0 20 20" id="icon-whatsapp" xmlns="http://www.w3.org/2000/svg"><path d="M9.997 1.256c-4.764.001-8.744 3.987-8.744 8.747 0 1.716.51 3.412 1.464 4.845L1.25 18.751l4.912-.889c1.2.587 2.518.88 3.835.882 4.769.003 8.753-3.977 8.753-8.74 0-4.759-3.986-8.75-8.753-8.748z" stroke="currentColor" stroke-width="1.2" stroke-linecap="round" stroke-linejoin="round"/><path d="M10.482 13.857c1.332.855 2.73.046 3.583-.68.395-.335.383-.927.029-1.305l-1.269-1.35c-.379.38-1.118.567-1.631.41-1.104-.335-1.567-.91-1.942-1.495-.431-.671.056-1.674.435-2.053L8.335 6.149c-.33-.3-.826-.352-1.138-.035-.933.943-1.584 2.58-.935 3.591 1.072 1.67 2.55 3.08 4.22 4.152z" stroke="currentColor" stroke-width="1.2" stroke-linecap="round" stroke-linejoin="round"/></svg></svg>