<?xml version="1.0" encoding="utf-8"?><svg viewBox="0 0 22 21" xmlns="http://www.w3.org/2000/svg" xmlns:xlink="http://www.w3.org/1999/xlink"><style>:root>svg{display:none}:root>svg:target{display:block}</style><svg fill="none" viewBox="0 0 8 12" id="icon-arrow-next-short" xmlns="http://www.w3.org/2000/svg"><path d="M1.497 1.05L6.447 6l-4.95 4.95" stroke="currentColor" stroke-width="1.5"/></svg><svg fill="none" viewBox="0 0 8 12" id="icon-arrow-prev-short" xmlns="http://www.w3.org/2000/svg"><path d="M6.503 1.05L1.553 6l4.95 4.95" stroke="currentColor" stroke-width="1.5"/></svg><svg fill="none" viewBox="0 0 20 20" id="icon-copy" xmlns="http://www.w3.org/2000/svg"><path d="M16.875 2.5h-10a.625.625 0 00-.625.625V6.25H3.125a.625.625 0 00-.625.625v10a.625.625 0 00.625.625h10a.624.624 0 00.625-.625V13.75h3.125a.624.624 0 00.625-.625v-10a.625.625 0 00-.625-.625zM12.5 16.25H3.75V7.5h8.75v8.75zm3.75-3.75h-2.5V6.875a.625.625 0 00-.625-.625H7.5v-2.5h8.75v8.75z" fill="currentColor"/></svg><svg fill="none" viewBox="0 0 20 20" id="icon-instagram" xmlns="http://www.w3.org/2000/svg"><path d="M15.203 5.175a.375.375 0 110-.75M15.203 5.175a.375.375 0 000-.75" stroke="currentColor" stroke-linecap="round" stroke-linejoin="round"/><path d="M1 4.857A3.857 3.857 0 014.857 1h10.286A3.857 3.857 0 0119 4.857v10.286A3.857 3.857 0 0115.143 19H4.857A3.857 3.857 0 011 15.143V4.857z" stroke="currentColor" stroke-linecap="round" stroke-linejoin="round"/><circle cx="10.002" cy="10" r="3.822" stroke="currentColor" stroke-linecap="round" stroke-linejoin="round"/></svg><svg fill="none" viewBox="0 0 20 18" id="icon-like" xmlns="http://www.w3.org/2000/svg"><path d="M10.006 17L2.367 9.63c-4.151-4.422 1.951-12.912 7.639-6.043 5.687-6.869 11.762 1.65 7.638 6.043L10.006 17z" stroke="currentColor" stroke-width="1.2" stroke-linecap="round" stroke-linejoin="round"/></svg><svg fill="none" viewBox="0 0 20 18" id="icon-like-filled" xmlns="http://www.w3.org/2000/svg"><path d="M10.006 17L2.367 9.63c-4.151-4.422 1.951-12.912 7.639-6.043 5.687-6.869 11.762 1.65 7.638 6.043L10.006 17z" fill="currentColor" stroke="currentColor" stroke-width="1.2" stroke-linecap="round" stroke-linejoin="round"/></svg><svg fill="none" viewBox="0 0 22 21" id="icon-search" xmlns="http://www.w3.org/2000/svg"><path d="M9.572 16.929a7.857 7.857 0 100-15.714 7.857 7.857 0 000 15.714z" stroke="currentColor" stroke-width="1.5" stroke-linecap="round" stroke-linejoin="round"/><path d="M20.286 19.786l-5-5" stroke="currentColor" stroke-width="1.5" stroke-linecap="square" stroke-linejoin="round"/></svg><svg fill="none" viewBox="0 0 20 20" id="icon-telegram" xmlns="http://www.w3.org/2000/svg"><path d="M19 1l-1.385 18-7.606-7.806L1 9.308 19 1z" stroke="currentColor" stroke-width="1.2" stroke-linecap="round" stroke-linejoin="round"/><path d="M6.656 10.486l1.354 7.816 4.954-4.105M10 11.157l2.886-2.31" stroke="currentColor" stroke-width="1.2" stroke-linecap="round" stroke-linejoin="round"/></svg><svg fill="none" viewBox="0 0 20 20" id="icon-thumb-up" xmlns="http://www.w3.org/2000/svg"><path d="M18.281 6.26a1.874 1.874 0 00-1.406-.635H12.5v-1.25A3.125 3.125 0 009.375 1.25a.625.625 0 00-.56.345L5.866 7.5H2.5a1.25 1.25 0 00-1.25 1.25v6.875a1.25 1.25 0 001.25 1.25h13.438a1.875 1.875 0 001.86-1.64l.938-7.5a1.874 1.874 0 00-.455-1.476zM2.5 8.75h3.125v6.875H2.5V8.75zm14.995-1.172l-.937 7.5a.624.624 0 01-.62.547H6.874V8.273l2.868-5.737a1.875 1.875 0 011.507 1.839V6.25a.625.625 0 00.625.625h5a.625.625 0 01.62.703z" fill="currentColor"/></svg><svg fill="none" viewBox="0 0 20 20" id="icon-whatsapp" xmlns="http://www.w3.org/2000/svg"><path d="M9.997 1.256c-4.764.001-8.744 3.987-8.744 8.747 0 1.716.51 3.412 1.464 4.845L1.25 18.751l4.912-.889c1.2.587 2.518.88 3.835.882 4.769.003 8.753-3.977 8.753-8.74 0-4.759-3.986-8.75-8.753-8.748z" stroke="currentColor" stroke-width="1.2" stroke-linecap="round" stroke-linejoin="round"/><path d="M10.482 13.857c1.332.855 2.73.046 3.583-.68.395-.335.383-.927.029-1.305l-1.269-1.35c-.379.38-1.118.567-1.631.41-1.104-.335-1.567-.91-1.942-1.495-.431-.671.056-1.674.435-2.053L8.335 6.149c-.33-.3-.826-.352-1.138-.035-.933.943-1.584 2.58-.935 3.591 1.072 1.67 2.55 3.08 4.22 4.152z" stroke="currentColor" stroke-width="1.2" stroke-linecap="round" stroke-linejoin="round"/></svg></svg>